solid ascii
  facet normal -7.071068e-01 0.000000e+00 7.071068e-01
    outer loop
      vertex   -1.040500e+02 1.200500e+02 -1.500000e+00
      vertex   -1.045500e+02 1.200500e+02 -2.000000e+00
      vertex   -1.040500e+02 1.179500e+02 -1.500000e+00
    endloop
  endfacet
  facet normal -6.774416e-01 0.000000e+00 6.774416e-01
    outer loop
      vertex   -1.040500e+02 1.179500e+02 -1.500000e+00
      vertex   -1.045500e+02 1.200500e+02 -2.000000e+00
      vertex   -1.045500e+02 1.174500e+02 -2.000000e+00
    endloop
  endfacet
  facet normal 5.773503e-01 -0.000000e+00 5.773503e-01
    outer loop
      vertex   -9.545000e+01 1.174500e+02 -2.000000e+00
      vertex   -9.545000e+01 1.200500e+02 -2.000000e+00
      vertex   -9.595000e+01 1.179500e+02 -1.500000e+00
    endloop
  endfacet
  facet normal 2.256463e-01 -0.000000e+00 2.256463e-01
    outer loop
      vertex   -9.595000e+01 1.179500e+02 -1.500000e+00
      vertex   -9.545000e+01 1.200500e+02 -2.000000e+00
      vertex   -9.595000e+01 1.200500e+02 -1.500000e+00
    endloop
  endfacet
  facet normal 0.000000e+00 -5.773503e-01 5.773503e-01
    outer loop
      vertex   -1.045500e+02 1.174500e+02 -2.000000e+00
      vertex   -9.545000e+01 1.174500e+02 -2.000000e+00
      vertex   -1.040500e+02 1.179500e+02 -1.500000e+00
    endloop
  endfacet
  facet normal 0.000000e+00 -5.794396e-02 5.794396e-02
    outer loop
      vertex   -1.040500e+02 1.179500e+02 -1.500000e+00
      vertex   -9.545000e+01 1.174500e+02 -2.000000e+00
      vertex   -9.595000e+01 1.179500e+02 -1.500000e+00
    endloop
  endfacet
  facet normal -1.000000e+00 0.000000e+00 0.000000e+00
    outer loop
      vertex   -1.040500e+02 1.200500e+02 -1.500000e+00
      vertex   -1.040500e+02 1.179500e+02 -1.500000e+00
      vertex   -1.040500e+02 1.200500e+02 6.500000e+00
    endloop
  endfacet
  facet normal -9.672308e-01 -0.000000e+00 0.000000e+00
    outer loop
      vertex   -1.040500e+02 1.200500e+02 6.500000e+00
      vertex   -1.040500e+02 1.179500e+02 -1.500000e+00
      vertex   -1.040500e+02 1.179500e+02 6.500000e+00
    endloop
  endfacet
  facet normal 0.000000e+00 -4.531470e-01 0.000000e+00
    outer loop
      vertex   -1.040500e+02 1.179500e+02 6.500000e+00
      vertex   -1.040500e+02 1.179500e+02 -1.500000e+00
      vertex   -1.010000e+02 1.179500e+02 5.000000e-01
    endloop
  endfacet
  facet normal 0.000000e+00 -8.177466e-01 -0.000000e+00
    outer loop
      vertex   -1.010000e+02 1.179500e+02 5.000000e-01
      vertex   -1.040500e+02 1.179500e+02 -1.500000e+00
      vertex   -9.595000e+01 1.179500e+02 -1.500000e+00
    endloop
  endfacet
  facet normal 0.000000e+00 -3.682140e-01 0.000000e+00
    outer loop
      vertex   -1.010000e+02 1.179500e+02 5.000000e-01
      vertex   -9.595000e+01 1.179500e+02 -1.500000e+00
      vertex   -9.900000e+01 1.179500e+02 5.000000e-01
    endloop
  endfacet
  facet normal 0.000000e+00 -9.939445e-01 0.000000e+00
    outer loop
      vertex   -9.900000e+01 1.179500e+02 5.000000e-01
      vertex   -9.595000e+01 1.179500e+02 -1.500000e+00
      vertex   -9.595000e+01 1.179500e+02 6.500000e+00
    endloop
  endfacet
  facet normal 0.000000e+00 -4.531470e-01 0.000000e+00
    outer loop
      vertex   -9.900000e+01 1.179500e+02 5.000000e-01
      vertex   -9.595000e+01 1.179500e+02 6.500000e+00
      vertex   -9.900000e+01 1.179500e+02 6.500000e+00
    endloop
  endfacet
  facet normal 0.000000e+00 -4.531470e-01 0.000000e+00
    outer loop
      vertex   -1.010000e+02 1.179500e+02 5.000000e-01
      vertex   -1.010000e+02 1.179500e+02 6.500000e+00
      vertex   -1.040500e+02 1.179500e+02 6.500000e+00
    endloop
  endfacet
  facet normal 1.000000e+00 0.000000e+00 0.000000e+00
    outer loop
      vertex   -9.595000e+01 1.179500e+02 -1.500000e+00
      vertex   -9.595000e+01 1.200500e+02 -1.500000e+00
      vertex   -9.595000e+01 1.179500e+02 6.500000e+00
    endloop
  endfacet
  facet normal 9.672308e-01 -0.000000e+00 0.000000e+00
    outer loop
      vertex   -9.595000e+01 1.179500e+02 6.500000e+00
      vertex   -9.595000e+01 1.200500e+02 -1.500000e+00
      vertex   -9.595000e+01 1.200500e+02 6.500000e+00
    endloop
  endfacet
  facet normal 0.000000e+00 7.071068e-01 0.000000e+00
    outer loop
      vertex   -9.545000e+01 1.200500e+02 -2.000000e+00
      vertex   -1.045500e+02 1.200500e+02 -2.000000e+00
      vertex   -9.595000e+01 1.200500e+02 -1.500000e+00
    endloop
  endfacet
  facet normal 0.000000e+00 5.804148e-02 0.000000e+00
    outer loop
      vertex   -9.595000e+01 1.200500e+02 -1.500000e+00
      vertex   -1.045500e+02 1.200500e+02 -2.000000e+00
      vertex   -1.040500e+02 1.200500e+02 -1.500000e+00
    endloop
  endfacet
  facet normal 0.000000e+00 5.483566e-01 0.000000e+00
    outer loop
      vertex   -9.595000e+01 1.200500e+02 -1.500000e+00
      vertex   -1.040500e+02 1.200500e+02 -1.500000e+00
      vertex   -9.900000e+01 1.200500e+02 5.000000e-01
    endloop
  endfacet
  facet normal 0.000000e+00 3.682140e-01 0.000000e+00
    outer loop
      vertex   -9.900000e+01 1.200500e+02 5.000000e-01
      vertex   -1.040500e+02 1.200500e+02 -1.500000e+00
      vertex   -1.010000e+02 1.200500e+02 5.000000e-01
    endloop
  endfacet
  facet normal 0.000000e+00 9.939445e-01 0.000000e+00
    outer loop
      vertex   -1.010000e+02 1.200500e+02 5.000000e-01
      vertex   -1.040500e+02 1.200500e+02 -1.500000e+00
      vertex   -1.040500e+02 1.200500e+02 6.500000e+00
    endloop
  endfacet
  facet normal 0.000000e+00 4.531470e-01 -0.000000e+00
    outer loop
      vertex   -1.010000e+02 1.200500e+02 5.000000e-01
      vertex   -1.040500e+02 1.200500e+02 6.500000e+00
      vertex   -1.010000e+02 1.200500e+02 6.500000e+00
    endloop
  endfacet
  facet normal -0.000000e+00 1.000000e+00 0.000000e+00
    outer loop
      vertex   -9.900000e+01 1.200500e+02 6.500000e+00
      vertex   -9.595000e+01 1.200500e+02 6.500000e+00
      vertex   -9.900000e+01 1.200500e+02 5.000000e-01
    endloop
  endfacet
  facet normal -0.000000e+00 9.939445e-01 0.000000e+00
    outer loop
      vertex   -9.900000e+01 1.200500e+02 5.000000e-01
      vertex   -9.595000e+01 1.200500e+02 6.500000e+00
      vertex   -9.595000e+01 1.200500e+02 -1.500000e+00
    endloop
  endfacet
  facet normal 0.000000e+00 0.000000e+00 1.000000e+00
    outer loop
      vertex   -9.900000e+01 1.200500e+02 5.000000e-01
      vertex   -1.010000e+02 1.200500e+02 5.000000e-01
      vertex   -9.900000e+01 1.179500e+02 5.000000e-01
    endloop
  endfacet
  facet normal 0.000000e+00 0.000000e+00 7.241389e-01
    outer loop
      vertex   -9.900000e+01 1.179500e+02 5.000000e-01
      vertex   -1.010000e+02 1.200500e+02 5.000000e-01
      vertex   -1.010000e+02 1.179500e+02 5.000000e-01
    endloop
  endfacet
  facet normal 0.000000e+00 0.000000e+00 1.000000e+00
    outer loop
      vertex   -1.010000e+02 1.200500e+02 6.500000e+00
      vertex   -1.040500e+02 1.200500e+02 6.500000e+00
      vertex   -1.010000e+02 1.179500e+02 6.500000e+00
    endloop
  endfacet
  facet normal 0.000000e+00 0.000000e+00 5.671025e-01
    outer loop
      vertex   -1.010000e+02 1.179500e+02 6.500000e+00
      vertex   -1.040500e+02 1.200500e+02 6.500000e+00
      vertex   -1.040500e+02 1.179500e+02 6.500000e+00
    endloop
  endfacet
  facet normal 1.000000e+00 0.000000e+00 -0.000000e+00
    outer loop
      vertex   -1.010000e+02 1.200500e+02 5.000000e-01
      vertex   -1.010000e+02 1.200500e+02 6.500000e+00
      vertex   -1.010000e+02 1.179500e+02 5.000000e-01
    endloop
  endfacet
  facet normal 3.303513e-01 0.000000e+00 0.000000e+00
    outer loop
      vertex   -1.010000e+02 1.179500e+02 5.000000e-01
      vertex   -1.010000e+02 1.200500e+02 6.500000e+00
      vertex   -1.010000e+02 1.179500e+02 6.500000e+00
    endloop
  endfacet
  facet normal -1.000000e+00 -0.000000e+00 -0.000000e+00
    outer loop
      vertex   -9.900000e+01 1.200500e+02 6.500000e+00
      vertex   -9.900000e+01 1.200500e+02 5.000000e-01
      vertex   -9.900000e+01 1.179500e+02 6.500000e+00
    endloop
  endfacet
  facet normal -3.303513e-01 0.000000e+00 0.000000e+00
    outer loop
      vertex   -9.900000e+01 1.179500e+02 6.500000e+00
      vertex   -9.900000e+01 1.200500e+02 5.000000e-01
      vertex   -9.900000e+01 1.179500e+02 5.000000e-01
    endloop
  endfacet
  facet normal 0.000000e+00 0.000000e+00 1.000000e+00
    outer loop
      vertex   -9.900000e+01 1.179500e+02 6.500000e+00
      vertex   -9.595000e+01 1.179500e+02 6.500000e+00
      vertex   -9.900000e+01 1.200500e+02 6.500000e+00
    endloop
  endfacet
  facet normal -0.000000e+00 0.000000e+00 5.671025e-01
    outer loop
      vertex   -9.900000e+01 1.200500e+02 6.500000e+00
      vertex   -9.595000e+01 1.179500e+02 6.500000e+00
      vertex   -9.595000e+01 1.200500e+02 6.500000e+00
    endloop
  endfacet
  facet normal 0.000000e+00 -0.000000e+00 2.032147e-01
    outer loop
      vertex   -1.045500e+02 1.174500e+02 -2.000000e+00
      vertex   -1.045500e+02 1.200500e+02 -2.000000e+00
      vertex   -1.051000e+02 1.201000e+02 -2.000000e+00
    endloop
  endfacet
  facet normal 0.000000e+00 0.000000e+00 8.536753e-02
    outer loop
      vertex   -1.051000e+02 1.201000e+02 -2.000000e+00
      vertex   -1.045500e+02 1.200500e+02 -2.000000e+00
      vertex   -9.545000e+01 1.200500e+02 -2.000000e+00
    endloop
  endfacet
  facet normal -0.000000e+00 0.000000e+00 5.180803e-03
    outer loop
      vertex   -1.051000e+02 1.201000e+02 -2.000000e+00
      vertex   -9.545000e+01 1.200500e+02 -2.000000e+00
      vertex   -9.490000e+01 1.201000e+02 -2.000000e+00
    endloop
  endfacet
  facet normal 0.000000e+00 0.000000e+00 9.567171e-01
    outer loop
      vertex   -9.490000e+01 1.201000e+02 -2.000000e+00
      vertex   -9.545000e+01 1.200500e+02 -2.000000e+00
      vertex   -9.545000e+01 1.174500e+02 -2.000000e+00
    endloop
  endfacet
  facet normal 0.000000e+00 0.000000e+00 2.032147e-01
    outer loop
      vertex   -9.490000e+01 1.201000e+02 -2.000000e+00
      vertex   -9.545000e+01 1.174500e+02 -2.000000e+00
      vertex   -9.490000e+01 1.171000e+02 -2.000000e+00
    endloop
  endfacet
  facet normal 0.000000e+00 0.000000e+00 5.059454e-01
    outer loop
      vertex   -9.490000e+01 1.171000e+02 -2.000000e+00
      vertex   -9.545000e+01 1.174500e+02 -2.000000e+00
      vertex   -1.045500e+02 1.174500e+02 -2.000000e+00
    endloop
  endfacet
  facet normal 0.000000e+00 0.000000e+00 3.624544e-02
    outer loop
      vertex   -9.490000e+01 1.171000e+02 -2.000000e+00
      vertex   -1.045500e+02 1.174500e+02 -2.000000e+00
      vertex   -1.051000e+02 1.171000e+02 -2.000000e+00
    endloop
  endfacet
  facet normal 0.000000e+00 0.000000e+00 8.436605e-01
    outer loop
      vertex   -1.051000e+02 1.171000e+02 -2.000000e+00
      vertex   -1.045500e+02 1.174500e+02 -2.000000e+00
      vertex   -1.051000e+02 1.201000e+02 -2.000000e+00
    endloop
  endfacet
  facet normal 0.000000e+00 0.000000e+00 -1.000000e+00
    outer loop
      vertex   -9.490000e+01 1.171000e+02 -3.000000e+00
      vertex   -1.051000e+02 1.171000e+02 -3.000000e+00
      vertex   -9.490000e+01 1.201000e+02 -3.000000e+00
    endloop
  endfacet
  facet normal -0.000000e+00 0.000000e+00 -2.821664e-01
    outer loop
      vertex   -9.490000e+01 1.201000e+02 -3.000000e+00
      vertex   -1.051000e+02 1.171000e+02 -3.000000e+00
      vertex   -1.051000e+02 1.201000e+02 -3.000000e+00
    endloop
  endfacet
  facet normal 0.000000e+00 -1.000000e+00 0.000000e+00
    outer loop
      vertex   -1.051000e+02 1.171000e+02 -2.000000e+00
      vertex   -1.051000e+02 1.171000e+02 -3.000000e+00
      vertex   -9.490000e+01 1.171000e+02 -2.000000e+00
    endloop
  endfacet
  facet normal 0.000000e+00 -9.952285e-01 -0.000000e+00
    outer loop
      vertex   -9.490000e+01 1.171000e+02 -2.000000e+00
      vertex   -1.051000e+02 1.171000e+02 -3.000000e+00
      vertex   -9.490000e+01 1.171000e+02 -3.000000e+00
    endloop
  endfacet
  facet normal -1.000000e+00 -0.000000e+00 -0.000000e+00
    outer loop
      vertex   -1.051000e+02 1.201000e+02 -2.000000e+00
      vertex   -1.051000e+02 1.201000e+02 -3.000000e+00
      vertex   -1.051000e+02 1.171000e+02 -2.000000e+00
    endloop
  endfacet
  facet normal -9.486833e-01 0.000000e+00 0.000000e+00
    outer loop
      vertex   -1.051000e+02 1.171000e+02 -2.000000e+00
      vertex   -1.051000e+02 1.201000e+02 -3.000000e+00
      vertex   -1.051000e+02 1.171000e+02 -3.000000e+00
    endloop
  endfacet
  facet normal 0.000000e+00 1.000000e+00 0.000000e+00
    outer loop
      vertex   -9.490000e+01 1.201000e+02 -2.000000e+00
      vertex   -9.490000e+01 1.201000e+02 -3.000000e+00
      vertex   -1.051000e+02 1.201000e+02 -2.000000e+00
    endloop
  endfacet
  facet normal 0.000000e+00 9.952285e-01 0.000000e+00
    outer loop
      vertex   -1.051000e+02 1.201000e+02 -2.000000e+00
      vertex   -9.490000e+01 1.201000e+02 -3.000000e+00
      vertex   -1.051000e+02 1.201000e+02 -3.000000e+00
    endloop
  endfacet
  facet normal 1.000000e+00 -0.000000e+00 0.000000e+00
    outer loop
      vertex   -9.490000e+01 1.171000e+02 -2.000000e+00
      vertex   -9.490000e+01 1.171000e+02 -3.000000e+00
      vertex   -9.490000e+01 1.201000e+02 -2.000000e+00
    endloop
  endfacet
  facet normal 9.486833e-01 0.000000e+00 0.000000e+00
    outer loop
      vertex   -9.490000e+01 1.201000e+02 -2.000000e+00
      vertex   -9.490000e+01 1.171000e+02 -3.000000e+00
      vertex   -9.490000e+01 1.201000e+02 -3.000000e+00
    endloop
  endfacet
endsolid
